<svg data-v-fde0c5aa="" xmlns="http://www.w3.org/2000/svg" viewBox="0 0 300 300" class="font"><!----><defs data-v-fde0c5aa=""><!----></defs><rect data-v-fde0c5aa="" fill="#0B173D" x="0" y="0" width="300px" height="300px" class="logo-background-square"></rect><defs data-v-fde0c5aa=""><!----></defs><g data-v-fde0c5aa="" id="8cb55ce7-a55b-4cca-aa79-015d9a6c5bb7" fill="#D1A103" transform="matrix(2.4797115325927734,0,0,2.4797115325927734,39.132101018606264,125.15329223375461)"><path d="M0.45 6.22C0.45 7.13 0.97 8.04 2.11 8.48C3.05 8.86 3.95 8.82 4.76 9.41C5.26 9.77 5.57 10.33 5.57 10.95C5.57 12.04 4.65 12.89 3.54 12.89C2.72 12.89 2.09 12.45 1.74 11.97C1.32 11.41 1.47 11.76 1.37 10.78C1.29 10.09 1.27 9.97 0.98 9.97C0.74 9.97 0.69 10.11 0.67 10.26C0.55 11.86 0.35 12.38 0.35 12.54C0.35 12.63 0.41 12.75 0.60 12.75C0.73 12.75 0.83 12.71 0.97 12.71C1.16 12.71 1.26 12.78 1.40 12.91C1.93 13.37 2.72 13.68 3.53 13.68C5.25 13.68 6.59 12.33 6.59 10.67C6.59 9.39 5.84 8.48 4.83 8.05C3.93 7.67 2.93 7.69 2.17 7.14C1.74 6.83 1.46 6.38 1.46 5.87C1.46 5.14 2.03 4.55 2.81 4.55C3.43 4.55 3.98 4.91 4.35 5.33C5.03 6.10 4.87 6.61 5.32 6.62L5.33 6.62C5.47 6.62 5.57 6.55 5.57 6.41C5.57 6.30 5.52 5.96 5.52 5.28C5.52 4.58 5.57 4.23 5.57 4.12C5.57 3.96 5.47 3.85 5.35 3.85C5.01 3.85 4.97 4.41 4.76 4.41C4.58 4.41 4.09 3.85 2.95 3.85C1.48 3.85 0.45 4.97 0.45 6.22ZM7.29 8.61C7.29 8.93 7.59 9.11 7.85 9.11C8.04 9.11 8.12 9.02 8.16 8.96C8.19 8.90 8.57 8.02 9.37 8.02C9.73 8.02 10.01 8.22 10.18 8.40C10.46 8.72 10.51 9.07 10.51 9.52L10.51 10.02C10.51 10.12 10.50 10.19 10.40 10.22C10.37 10.23 8.69 10.29 7.94 10.89C7.60 11.16 7.35 11.61 7.35 12.14L7.35 12.15C7.35 13.01 7.98 13.72 8.95 13.72C9.46 13.72 9.93 13.54 10.25 13.33C10.60 13.09 10.56 13.02 10.63 13.02C10.64 13.02 10.64 13.03 10.65 13.03C10.68 13.05 11.02 13.61 11.65 13.61C12.38 13.61 12.73 12.82 12.73 12.50C12.73 12.38 12.66 12.32 12.60 12.32C12.39 12.32 12.42 12.78 11.98 12.78C11.84 12.78 11.51 12.71 11.51 12.17L11.51 9.41C11.51 9.24 11.49 9.07 11.48 8.90C11.34 7.53 9.98 7.36 9.45 7.36C8.29 7.36 7.29 8.11 7.29 8.61ZM9.28 12.95C9.10 12.95 8.85 12.92 8.68 12.77C8.46 12.57 8.39 12.22 8.39 12.00C8.39 11.65 8.54 11.40 8.72 11.24C9.18 10.81 10.14 10.74 10.39 10.74C10.51 10.74 10.53 10.81 10.53 11.14L10.53 11.72L10.53 12.05C10.53 12.18 10.51 12.28 10.44 12.38C10.37 12.47 9.97 12.95 9.28 12.95ZM16.98 7.90C16.98 8.12 17.12 8.12 17.19 8.13C17.72 8.18 18.02 8.15 18.02 8.41C18.02 8.64 17.74 10.40 16.67 12.26C16.67 12.28 16.65 12.33 16.60 12.33C16.53 12.33 16.49 12.24 16.48 12.22C15.48 10.51 14.81 8.64 14.81 8.46C14.81 8.32 14.92 8.22 15.09 8.20C15.57 8.12 15.88 8.26 15.88 7.91C15.88 7.76 15.85 7.63 15.68 7.63C15.54 7.63 15.15 7.67 14.34 7.67C13.54 7.67 13.15 7.63 13.01 7.63C12.89 7.63 12.84 7.70 12.84 7.81C12.84 8.36 13.22 8.01 13.50 8.36C13.69 8.61 14.20 10.18 15.99 13.36C16.11 13.59 16.24 13.79 16.45 13.79C16.56 13.79 16.66 13.73 16.72 13.66C16.88 13.48 18.02 11.24 18.75 8.60C18.79 8.43 18.79 8.40 18.83 8.32C19.01 8.01 19.60 8.36 19.60 7.90C19.60 7.76 19.56 7.63 19.39 7.63C19.28 7.63 18.94 7.67 18.27 7.67C17.60 7.67 17.26 7.63 17.15 7.63C17.02 7.63 16.98 7.73 16.98 7.83ZM19.96 10.58C19.96 12.31 21.15 13.71 22.93 13.71C24.50 13.71 25.91 12.59 25.91 10.58C25.91 8.71 24.65 7.39 22.99 7.39C21.42 7.39 19.96 8.64 19.96 10.58ZM22.97 13.02C21.83 13.02 21.06 11.97 21.06 10.51C21.06 8.64 22.16 8.05 22.89 8.05C23.95 8.05 24.96 9.14 24.96 10.64C24.96 11.89 24.16 13.02 22.97 13.02ZM28.24 8.16C28.21 8.16 28.20 8.13 28.20 8.09L28.20 7.53C28.20 7.41 28.18 7.25 28.03 7.25C27.99 7.25 27.94 7.28 27.90 7.29C26.45 8.01 26.43 7.98 26.43 8.05C26.45 8.11 26.47 8.13 26.49 8.15C27.15 8.62 27.26 8.61 27.26 8.89L27.26 12.60C27.26 12.81 27.20 12.89 27.01 12.94C26.63 13.03 26.38 12.95 26.38 13.29C26.38 13.43 26.46 13.52 26.60 13.52C26.64 13.52 27.24 13.44 28.03 13.44C28.78 13.44 29.40 13.52 29.44 13.52C29.62 13.52 29.64 13.36 29.64 13.24C29.64 12.92 29.46 12.98 28.62 12.91C28.28 12.88 28.27 12.64 28.27 12.49L28.27 12.43L28.27 9.07C28.27 8.97 28.27 8.90 28.32 8.82C28.41 8.69 28.97 8.25 29.41 8.25C29.88 8.25 29.89 8.60 30.24 8.60C30.48 8.60 30.66 8.41 30.81 8.32C30.93 8.22 31.18 8.06 31.19 7.83L31.19 7.81C31.19 7.42 30.55 7.20 30.10 7.20C29.95 7.20 29.82 7.21 29.69 7.25C29.32 7.39 28.29 8.16 28.24 8.16ZM32.68 4.79C32.68 5.17 32.97 5.45 33.33 5.45C33.70 5.45 34.02 5.15 34.02 4.77C34.02 4.42 33.71 4.13 33.35 4.13C32.98 4.13 32.68 4.42 32.68 4.79ZM32.54 11.75L32.54 12.40C32.54 12.66 32.51 12.85 32.16 12.91C31.53 12.99 31.47 12.96 31.47 13.29C31.47 13.43 31.54 13.52 31.68 13.52C31.72 13.52 32.27 13.44 32.97 13.44C33.66 13.44 34.22 13.52 34.26 13.52C34.41 13.52 34.43 13.33 34.43 13.22C34.43 12.98 34.26 12.99 33.80 12.92C33.49 12.88 33.47 12.84 33.47 11.13L33.47 10.67C33.47 8.96 33.56 7.60 33.56 7.49C33.56 7.32 33.45 7.27 33.36 7.27L33.35 7.27C33.28 7.27 33.26 7.29 31.81 7.99C31.65 8.06 31.43 8.12 31.43 8.29C31.43 8.40 31.53 8.44 31.60 8.47C32.49 8.83 32.55 8.82 32.55 9.04C32.55 9.31 32.54 10.12 32.54 11.75ZM35.03 8.61C35.03 8.93 35.32 9.11 35.59 9.11C35.77 9.11 35.85 9.02 35.90 8.96C35.92 8.90 36.30 8.02 37.10 8.02C37.46 8.02 37.74 8.22 37.91 8.40C38.19 8.72 38.25 9.07 38.25 9.52L38.25 10.02C38.25 10.12 38.23 10.19 38.14 10.22C38.11 10.23 36.43 10.29 35.67 10.89C35.34 11.16 35.08 11.61 35.08 12.14L35.08 12.15C35.08 13.01 35.71 13.72 36.68 13.72C37.20 13.72 37.66 13.54 37.98 13.33C38.33 13.09 38.29 13.02 38.36 13.02C38.37 13.02 38.37 13.03 38.39 13.03C38.42 13.05 38.75 13.61 39.38 13.61C40.11 13.61 40.46 12.82 40.46 12.50C40.46 12.38 40.39 12.32 40.33 12.32C40.12 12.32 40.15 12.78 39.72 12.78C39.58 12.78 39.24 12.71 39.24 12.17L39.24 9.41C39.24 9.24 39.23 9.07 39.21 8.90C39.07 7.53 37.72 7.36 37.18 7.36C36.02 7.36 35.03 8.11 35.03 8.61ZM37.02 12.95C36.83 12.95 36.58 12.92 36.41 12.77C36.19 12.57 36.12 12.22 36.12 12.00C36.12 11.65 36.27 11.40 36.46 11.24C36.92 10.81 37.87 10.74 38.12 10.74C38.25 10.74 38.26 10.81 38.26 11.14L38.26 11.72L38.26 12.05C38.26 12.18 38.25 12.28 38.18 12.38C38.11 12.47 37.70 12.95 37.02 12.95ZM48.24 12.77C47.94 12.77 47.64 12.74 47.35 12.68C46.98 12.61 46.84 12.49 46.84 12.14L46.84 5.01C46.84 4.66 46.97 4.58 47.78 4.58C48.65 4.58 49.77 4.77 50.69 5.45C51.80 6.27 52.37 7.67 52.37 9.02C52.37 11.49 50.29 12.77 48.24 12.77ZM44.20 4.28C44.20 4.48 44.24 4.61 44.45 4.61C45.28 4.63 45.60 4.58 45.60 5.12L45.60 12.21C45.60 12.52 45.54 12.70 45.22 12.71C44.48 12.75 44.18 12.70 44.18 13.05C44.18 13.41 44.38 13.44 44.51 13.44L48.47 13.44C48.89 13.44 49.31 13.43 49.71 13.36C51.72 12.99 53.77 11.12 53.77 8.64C53.77 6.65 52.50 5.25 51.11 4.61C49.87 4.03 48.43 3.99 47.05 3.99L44.51 3.99C44.38 3.99 44.20 4.02 44.20 4.28ZM54.28 10.56C54.28 12.95 55.83 13.71 56.98 13.71C57.97 13.71 58.88 13.20 59.46 12.46C59.53 12.38 59.56 12.29 59.56 12.24C59.56 12.11 59.46 12.03 59.33 12.03C59.19 12.03 59.08 12.15 59.01 12.22C58.58 12.64 57.96 12.91 57.34 12.91C55.58 12.91 55.27 11.05 55.27 10.88C55.27 10.75 55.36 10.77 58.25 9.77C58.66 9.63 59.39 9.49 59.39 9.07L59.39 9.06C59.39 8.93 59.33 8.82 59.28 8.75C58.76 8.04 57.83 7.41 56.87 7.41C55.47 7.41 54.28 8.60 54.28 10.56ZM58.03 9.10C58.03 9.16 57.99 9.23 57.90 9.27C57.88 9.28 55.33 10.28 55.29 10.28C55.26 10.28 55.22 10.26 55.22 10.18C55.22 8.93 55.75 8.18 56.56 8.18C57.34 8.18 58.03 8.93 58.03 9.10ZM62.89 13.24C62.89 13.06 62.82 12.99 62.65 12.96C62.09 12.87 61.94 12.89 61.94 12.45L61.94 3.58C61.94 3.46 61.91 3.32 61.74 3.32C61.67 3.32 61.61 3.35 61.57 3.37C59.88 4.26 59.85 4.23 59.85 4.34L59.85 4.35C59.85 4.51 60.03 4.56 60.59 4.90C60.83 5.04 60.91 5.04 60.91 5.25L60.91 12.38C60.91 12.66 60.89 12.87 60.52 12.91C60.05 12.96 59.95 12.95 59.95 13.22L59.95 13.26C59.95 13.36 59.96 13.51 60.14 13.51C60.19 13.51 60.73 13.44 61.40 13.44C62.10 13.44 62.68 13.52 62.72 13.52C62.86 13.52 62.89 13.41 62.89 13.24ZM64.50 4.79C64.50 5.17 64.79 5.45 65.16 5.45C65.52 5.45 65.84 5.15 65.84 4.77C65.84 4.42 65.53 4.13 65.17 4.13C64.81 4.13 64.50 4.42 64.50 4.79ZM64.36 11.75L64.36 12.40C64.36 12.66 64.33 12.85 63.98 12.91C63.35 12.99 63.29 12.96 63.29 13.29C63.29 13.43 63.36 13.52 63.50 13.52C63.55 13.52 64.09 13.44 64.79 13.44C65.48 13.44 66.04 13.52 66.08 13.52C66.23 13.52 66.25 13.33 66.25 13.22C66.25 12.98 66.08 12.99 65.62 12.92C65.31 12.88 65.30 12.84 65.30 11.13L65.30 10.67C65.30 8.96 65.38 7.60 65.38 7.49C65.38 7.32 65.27 7.27 65.18 7.27L65.17 7.27C65.10 7.27 65.09 7.29 63.63 7.99C63.48 8.06 63.25 8.12 63.25 8.29C63.25 8.40 63.35 8.44 63.42 8.47C64.32 8.83 64.37 8.82 64.37 9.04C64.37 9.31 64.36 10.12 64.36 11.75ZM69.06 7.85C69.96 7.85 70.53 8.85 70.53 9.83C70.53 10.70 70.04 11.38 69.29 11.38C68.42 11.38 67.84 10.44 67.84 9.39C67.84 8.47 68.36 7.85 69.06 7.85ZM67.61 14.67C67.61 14.43 67.70 14.18 67.87 14.01C67.97 13.92 68.01 13.86 68.11 13.86L68.15 13.86C69.61 14.01 70.48 13.89 71.11 14.21C71.26 14.28 71.67 14.53 71.67 15.04C71.67 15.44 71.33 16.06 69.89 16.06C68.60 16.06 67.61 15.51 67.61 14.67ZM66.75 9.56C66.75 9.93 66.84 10.28 67.02 10.58C67.41 11.30 67.87 11.34 67.87 11.48C67.87 11.49 67.87 11.51 67.86 11.52C67.84 11.54 67.06 12.12 67.06 12.84C67.06 13.47 67.58 13.59 67.58 13.68C67.58 13.71 67.56 13.72 67.55 13.73C67.54 13.75 66.82 14.10 66.82 14.95C66.82 15.60 67.27 16.72 69.57 16.72C71.88 16.72 72.48 15.57 72.48 14.80C72.48 14.18 72.09 13.50 71.20 13.24C70.11 12.92 67.77 13.30 67.77 12.46C67.77 12.15 68.15 11.75 68.40 11.75C68.59 11.75 68.75 11.87 69.22 11.87C70.53 11.87 71.54 10.81 71.54 9.52C71.54 8.99 71.39 8.72 71.39 8.64C71.39 8.60 71.41 8.55 71.44 8.53C71.57 8.43 72.45 8.23 72.45 7.69C72.45 7.41 72.18 7.11 71.92 7.11C71.69 7.11 71.58 7.32 71.51 7.43C71.33 7.70 71.05 7.88 70.78 7.88C70.48 7.88 70.03 7.38 69.02 7.38C67.72 7.38 66.75 8.39 66.75 9.56ZM76.71 13.33C76.71 13.43 76.73 13.52 76.86 13.52C76.90 13.52 77.45 13.44 78.12 13.44C78.82 13.44 79.35 13.52 79.39 13.52C79.51 13.52 79.58 13.47 79.58 13.22C79.58 13.02 79.45 12.98 79.34 12.96C78.99 12.92 78.82 12.91 78.82 12.52C78.76 9.90 78.69 9.46 78.41 8.81C78.09 8.06 77.46 7.53 76.54 7.53C75.59 7.53 74.97 8.05 74.89 8.05C74.86 8.05 74.82 8.04 74.82 7.95L74.83 3.64C74.83 3.42 74.70 3.37 74.62 3.37L74.61 3.37C74.51 3.37 74.49 3.40 73.00 4.27C72.97 4.28 72.77 4.37 72.77 4.54C72.77 4.90 73.70 4.77 73.77 5.12C73.78 5.21 73.82 7.42 73.82 8.55L73.82 8.61C73.82 9.90 73.79 11.19 73.75 12.46C73.74 12.66 73.74 12.88 73.42 12.94C73.02 13.02 72.90 13.01 72.90 13.24C72.90 13.37 72.90 13.52 73.07 13.52C73.11 13.52 73.67 13.44 74.38 13.44C75.07 13.44 75.63 13.52 75.67 13.52C75.80 13.52 75.82 13.36 75.82 13.23C75.82 12.73 74.89 13.17 74.77 12.57C74.75 12.47 74.75 9.20 74.75 9.11C74.75 9.04 74.75 8.99 74.76 8.93C74.83 8.65 75.38 8.25 75.98 8.25C76.43 8.25 76.83 8.47 77.11 8.75C77.46 9.13 77.78 9.67 77.78 11.69C77.78 12.75 77.78 12.87 77.50 12.91C76.89 12.99 76.71 12.94 76.71 13.23ZM80.36 8.33L80.81 8.33C80.89 8.33 80.91 8.39 80.91 8.46C80.91 8.76 80.85 10.93 80.85 11.55C80.85 11.70 80.85 11.84 80.86 12.00C80.96 13.31 81.72 13.71 82.28 13.71C83.05 13.71 83.73 13.01 84.22 12.45C84.25 12.40 84.32 12.32 84.32 12.21C84.32 12.08 84.22 11.96 84.07 11.96C83.76 11.96 83.22 12.80 82.54 12.80C81.96 12.80 81.83 12.25 81.83 11.76C81.83 11.42 81.83 11.10 81.84 8.48C81.84 8.39 81.89 8.36 81.98 8.36L83.62 8.36C83.75 8.36 83.82 8.34 83.87 8.29C83.94 8.20 84 7.97 84 7.88C84 7.62 83.76 7.62 83.64 7.62C83.59 7.62 83.57 7.60 83.52 7.60L82.26 7.60C82.10 7.60 81.98 7.56 81.98 7.32C81.98 7.13 82.00 6.54 82.00 6.34C82.00 6.16 81.90 6.12 81.82 6.12C81.66 6.12 81.58 6.30 81.54 6.37C80.78 7.66 80.08 7.91 80.08 8.15C80.08 8.32 80.23 8.33 80.36 8.33ZM84.90 9.11C84.90 9.80 85.32 10.50 86.45 10.82C86.90 10.95 88.13 11.09 88.13 12.01C88.13 12.57 87.63 12.95 87.00 12.95C86.18 12.95 85.54 12.42 85.40 12.12C85.20 11.73 85.43 11.26 85.08 11.26C84.87 11.26 84.83 11.33 84.83 11.69C84.83 11.89 84.84 12.15 84.84 12.53C84.84 12.74 84.87 12.85 85.01 13.01C85.41 13.48 86.30 13.71 86.94 13.71C88.33 13.71 89.07 12.71 89.07 11.82C89.07 11.59 89.01 11.13 88.65 10.71C88.13 10.11 87.47 10.07 86.76 9.87C85.72 9.58 85.65 9.06 85.65 8.86C85.65 8.41 86.06 8.12 86.53 8.12C87.00 8.12 87.50 8.41 87.68 8.67C87.88 8.95 87.84 9.35 88.13 9.35C88.24 9.35 88.45 9.31 88.45 9.13C88.45 9.07 88.27 8.15 88.19 7.66C88.17 7.59 88.13 7.39 87.96 7.39C87.79 7.39 87.74 7.53 87.61 7.53C87.54 7.53 87.33 7.46 86.91 7.46C85.65 7.46 84.90 8.27 84.90 9.11Z"></path></g><!----><!----></svg>